<svg xmlns="http://www.w3.org/2000/svg" data-name="Layer 1" viewBox="0 0 1000 1000.1"><defs><style>  .cls-1{fill:#f2f2f2;}.cls-2{fill:none;}</style></defs><title>  no_ph</title><path class="cls-1" d="M144.5 354.1v353a56.8 56.8 0 0 0 56.8 56.8H419.7a210.2 210.2 0 0 0 230.2 0H798.7a56.8 56.8 0 0 0 56.8-56.8h0v-353h-711Zm628.3 15.1a18.1 18.1 0 1 1-18.1 18.1 18.1 18.1 0 0 1 18.1-18.1h0ZM273.4 415.3V703.8H236.8V405.8c0-22.7 45.7-39.3 54.2-31.5S273.4 398.7 273.4 415.3ZM533.5 745.8A184.3 184.3 0 1 1 717.7 561.6h0A184.3 184.3 0 0 1 533.5 745.8ZM818 697H738.5V653.3H818V697Z" transform="translate(0 0.02)"/><path class="cls-1" d="M798.7 296.5h-3.3V250H677.1v46.2c-28.8-3.4-51.9-70.1-51.9-70.1H439.5s-25.7 70.4-54.2 70.4h-0.4V252.7H266.6V296.5H201.3a56.8 56.8 0 0 0-55.8 46.7h709A56.7 56.7 0 0 0 798.7 296.5Zm-190.3 8.6H467.6V251.8H608.4v53.3h0Z" transform="translate(0 0.02)"/><path class="cls-1" d="M534.2 465.8a97.3 97.3 0 1 0 97.3 97.3A97.3 97.3 0 0 0 534.2 465.8Z" transform="translate(0 0.02)"/><path class="cls-1" d="M533.5 430.2a131.4 131.4 0 1 0 0.1 0h-0.1Zm0.7 239.1A106.2 106.2 0 1 1 640.3 563.1h0A106.3 106.3 0 0 1 534.2 669.2h0Z" transform="translate(0 0.02)"/><rect class="cls-2" width="1.1" height="1.1"/><rect class="cls-2" x="997.3" width="2.7" height="2"/><rect class="cls-2" x="999.2" y="999.3" width="0.8" height="0.8"/><rect class="cls-2" y="998.4" width="1.5" height="1.5"/></svg>