<svg xmlns="http://www.w3.org/2000/svg" viewBox="0 0 1000 1000.05"><defs><style>.a{fill:#e6e6e6;}.b{fill:none;}</style></defs><title>no_photo_admin</title><path class="a" d="M144.49,354.1v353a56.82,56.82,0,0,0,56.81,56.83H419.73a210.16,210.16,0,0,0,230.17,0H798.69a56.82,56.82,0,0,0,56.82-56.82h0v-353h-711Zm628.33,15.12a18.06,18.06,0,1,1-18.06,18.06h0a18.06,18.06,0,0,1,18.06-18.06h0ZM273.37,415.29V703.84H236.79V405.78c0-22.69,45.72-39.28,54.19-31.5S273.37,398.69,273.37,415.29ZM533.48,745.84A184.25,184.25,0,1,1,717.73,561.59h0A184.25,184.25,0,0,1,533.48,745.84ZM818,697H738.49V653.27H818V697Z"/><path class="a" d="M798.69,296.52h-3.3V250H677.08v46.19c-28.77-3.4-51.94-70.12-51.94-70.12H439.54s-25.73,70.44-54.19,70.44h-0.44V252.74H266.6v43.78H201.32a56.76,56.76,0,0,0-55.82,46.71h709A56.74,56.74,0,0,0,798.69,296.52ZM608.43,305.1H467.55V251.81H608.43V305.1h0Z"/><path class="a" d="M534.19,465.83a97.34,97.34,0,1,0,97.34,97.34,97.34,97.34,0,0,0-97.34-97.34h0Z"/><path class="a" d="M533.48,430.2a131.38,131.38,0,1,0,.06,0h-0.06Zm0.71,239.06A106.16,106.16,0,1,1,640.34,563.09h0A106.33,106.33,0,0,1,534.19,669.25h0Z"/><rect class="b" width="1.1" height="1.1"/><rect class="b" x="997.33" y="0.02" width="2.67" height="2.04"/><rect class="b" x="999.23" y="999.28" width="0.77" height="0.77"/><rect class="b" y="998.44" width="1.47" height="1.47"/></svg>