<svg xmlns="http://www.w3.org/2000/svg" viewBox="0 0 127.69 12.19"><defs><style>.a{opacity:0.5;}.b{fill:#005ea0;}</style></defs><title>san</title><g class="a"><path class="b" d="M45.82,22.15a0.36,0.36,0,0,1,.36.36,0.34,0.34,0,0,1-.09.24,5.08,5.08,0,0,1-1.39.78,4.68,4.68,0,0,1-3.35-.09,4.64,4.64,0,0,1-2.54-2.54,4.68,4.68,0,0,1,1-5.1,4.68,4.68,0,0,1,6.29-.31,0.35,0.35,0,0,1,.11.26,0.36,0.36,0,0,1-.36.36,0.43,0.43,0,0,1-.3-0.14,3.73,3.73,0,0,0-2.42-.82,4,4,0,0,0-4,4,4,4,0,0,0,6.45,3.09A0.33,0.33,0,0,1,45.82,22.15Z" transform="translate(-38.45 -14.42)"/><path class="b" d="M52.95,22.6a3.56,3.56,0,0,1-2.55,1.19,3.28,3.28,0,0,1-2.32-5.6,3.28,3.28,0,0,1,5.6,2.32v2.92a0.36,0.36,0,0,1-.36.36,0.36,0.36,0,0,1-.26-0.11,0.35,0.35,0,0,1-.11-0.26V22.6ZM50.4,18a2.55,2.55,0,1,0,1.8.75A2.46,2.46,0,0,0,50.4,18Z" transform="translate(-38.45 -14.42)"/><path class="b" d="M55.29,20.88v2.55a0.36,0.36,0,1,1-.73,0V17.59a0.36,0.36,0,1,1,.73,0v2.55h3.89V17.59a0.36,0.36,0,1,1,.73,0v5.84a0.36,0.36,0,1,1-.73,0V20.88H55.29Z" transform="translate(-38.45 -14.42)"/><path class="b" d="M61.58,23.43a0.36,0.36,0,0,1-.36.36A0.36,0.36,0,0,1,61,23.69a0.35,0.35,0,0,1-.11-0.26V17.59A0.35,0.35,0,0,1,61,17.34a0.36,0.36,0,0,1,.26-0.11,0.36,0.36,0,0,1,.36.36V18a2.8,2.8,0,0,1,1.82-.76,2.46,2.46,0,0,1,1.8.75,4.52,4.52,0,0,1,.38.46A4.06,4.06,0,0,1,66,18a2.55,2.55,0,0,1,4.35,1.8v3.64a0.36,0.36,0,1,1-.73,0V19.79a1.82,1.82,0,1,0-3.64,0v3.64a0.35,0.35,0,0,1-.11.26,0.36,0.36,0,0,1-.26.11,0.36,0.36,0,0,1-.36-0.36V19.79a1.82,1.82,0,1,0-3.64,0v3.64Z" transform="translate(-38.45 -14.42)"/><path class="b" d="M76.34,22.38a0.35,0.35,0,0,1,.26.11,0.36,0.36,0,0,1,.11.26,0.35,0.35,0,0,1-.09.25,3.28,3.28,0,0,1-4.46-4.81,3.28,3.28,0,0,1,5.6,2.32,0.36,0.36,0,0,1-.36.36H71.93a2.74,2.74,0,0,0,.74,1.44,2.46,2.46,0,0,0,1.8.75,2.44,2.44,0,0,0,1.64-.6A0.35,0.35,0,0,1,76.34,22.38ZM77,20.15a2.68,2.68,0,0,0-.73-1.44,2.55,2.55,0,0,0-3.61,0,2.74,2.74,0,0,0-.74,1.44H77Z" transform="translate(-38.45 -14.42)"/><path class="b" d="M81,20.51l-2.23-2.67a0.34,0.34,0,0,1-.09-0.24,0.35,0.35,0,0,1,.11-0.26,0.37,0.37,0,0,1,.52,0l2.16,2.59,2.17-2.59a0.36,0.36,0,0,1,.26-0.11,0.36,0.36,0,0,1,.36.36,0.37,0.37,0,0,1-.08.24L82,20.51l2.26,2.7a0.4,0.4,0,0,1,.06.22,0.36,0.36,0,0,1-.36.36,0.31,0.31,0,0,1-.25-0.11l-2.19-2.61-2.18,2.61a0.31,0.31,0,0,1-.25.11,0.36,0.36,0,0,1-.26-0.11,0.35,0.35,0,0,1-.11-0.26,0.38,0.38,0,0,1,.07-0.22Z" transform="translate(-38.45 -14.42)"/><path class="b" d="M86,20.88v2.55a0.36,0.36,0,1,1-.73,0V17.59a0.36,0.36,0,1,1,.73,0v2.55h3.89V17.59a0.36,0.36,0,1,1,.73,0v5.84a0.36,0.36,0,1,1-.73,0V20.88H86Z" transform="translate(-38.45 -14.42)"/><path class="b" d="M93,15.65a0.49,0.49,0,0,1-.83.35,0.49,0.49,0,1,1,.69-0.69A0.47,0.47,0,0,1,93,15.65Zm-0.85,1.95a0.36,0.36,0,0,1,.36-0.36,0.36,0.36,0,0,1,.26.11,0.35,0.35,0,0,1,.11.26v5.84a0.35,0.35,0,0,1-.11.26,0.36,0.36,0,0,1-.26.11,0.36,0.36,0,0,1-.36-0.36V17.59Z" transform="translate(-38.45 -14.42)"/><path class="b" d="M94.4,17.59a0.36,0.36,0,0,1,.36-0.36,0.36,0.36,0,0,1,.26.11,0.35,0.35,0,0,1,.11.26v2.92l3.76-3.19a0.35,0.35,0,0,1,.25-0.09,0.36,0.36,0,0,1,.36.36,0.37,0.37,0,0,1-.09.25l-3.13,2.65,3.12,2.67a0.35,0.35,0,0,1,.11.26,0.36,0.36,0,0,1-.36.36,0.34,0.34,0,0,1-.23-0.09L95.72,21l-0.58.5v2a0.35,0.35,0,0,1-.11.26,0.36,0.36,0,0,1-.26.11,0.36,0.36,0,0,1-.36-0.36V17.59Z" transform="translate(-38.45 -14.42)"/><path class="b" d="M106.11,22.6a3.56,3.56,0,0,1-2.55,1.19,3.28,3.28,0,0,1-2.32-5.6,3.28,3.28,0,0,1,5.6,2.32v2.92a0.36,0.36,0,0,1-.36.36,0.36,0.36,0,0,1-.26-0.11,0.35,0.35,0,0,1-.11-0.26V22.6ZM103.56,18a2.55,2.55,0,1,0,1.8.75A2.46,2.46,0,0,0,103.56,18Z" transform="translate(-38.45 -14.42)"/><path class="b" d="M117.06,22.59a3.33,3.33,0,0,1-2.55,1.18,3.27,3.27,0,0,1-2.32-5.58,3.28,3.28,0,0,1,5.6,2.31v3.32a2.42,2.42,0,0,1-.73,1.75,3.53,3.53,0,0,1-5,0,3.25,3.25,0,0,1-.62-0.79,0.43,0.43,0,0,1-.06-0.22,0.36,0.36,0,0,1,.36-0.36,0.4,0.4,0,0,1,.35.22,3,3,0,0,0,.49.64,2.74,2.74,0,0,0,.91.61,2.8,2.8,0,0,0,1.07.2,2.7,2.7,0,0,0,2-.82,1.94,1.94,0,0,0,.52-1.24V22.59ZM114.51,18a2.54,2.54,0,1,0,1.8.74A2.47,2.47,0,0,0,114.51,18Z" transform="translate(-38.45 -14.42)"/><path class="b" d="M122.08,17.42l2.7,5.88a0.34,0.34,0,0,1,0,.14,0.34,0.34,0,0,1-.11.26,0.37,0.37,0,0,1-.26.1,0.37,0.37,0,0,1-.26-0.11l-0.06-.09-2.34-5.13-2.34,5.13a0.36,0.36,0,0,1-.06.09,0.38,0.38,0,0,1-.26.1,0.36,0.36,0,0,1-.36-0.36,0.38,0.38,0,0,1,0-.14l2.7-5.88a0.27,0.27,0,0,1,.06-0.08,0.35,0.35,0,0,1,.26-0.1,0.34,0.34,0,0,1,.25.09A0.31,0.31,0,0,1,122.08,17.42Z" transform="translate(-38.45 -14.42)"/><path class="b" d="M130.27,17.23a0.36,0.36,0,0,1,.36.36v5.84a0.36,0.36,0,1,1-.73,0V20.88h-1.58a1,1,0,0,0-.77.32,1.11,1.11,0,0,0-.21.29l-1.11,2.08a0.46,0.46,0,0,1-.08.13,0.34,0.34,0,0,1-.25.1,0.36,0.36,0,0,1-.26-0.11,0.33,0.33,0,0,1-.11-0.25,0.57,0.57,0,0,1,.08-0.25l1.09-2.06a3,3,0,0,1,.31-0.44,2.53,2.53,0,0,1-.46-0.35,1.72,1.72,0,0,1-.54-1.29,1.82,1.82,0,0,1,1.82-1.82h2.43Zm-0.36,2.92V18h-2.07a1.1,1.1,0,0,0,0,2.19h2.07Z" transform="translate(-38.45 -14.42)"/><path class="b" d="M141,22.59a3.33,3.33,0,0,1-2.55,1.18,3.27,3.27,0,0,1-2.32-5.58,3.28,3.28,0,0,1,5.6,2.31v3.32a2.42,2.42,0,0,1-.73,1.75,3.53,3.53,0,0,1-5,0,3.25,3.25,0,0,1-.62-0.79,0.43,0.43,0,0,1-.06-0.22,0.36,0.36,0,0,1,.36-0.36,0.4,0.4,0,0,1,.35.22,3,3,0,0,0,.49.64,2.74,2.74,0,0,0,.91.61,2.8,2.8,0,0,0,1.07.2,2.7,2.7,0,0,0,2-.82,1.94,1.94,0,0,0,.52-1.24V22.59ZM138.41,18a2.54,2.54,0,1,0,1.8.74A2.47,2.47,0,0,0,138.41,18Z" transform="translate(-38.45 -14.42)"/><path class="b" d="M149.19,20.51a3.28,3.28,0,1,1-1-2.32A3.16,3.16,0,0,1,149.19,20.51ZM145.91,18a2.55,2.55,0,1,0,1.8.75A2.46,2.46,0,0,0,145.91,18Z" transform="translate(-38.45 -14.42)"/><path class="b" d="M154,23.52l-1.59-4.76-1.61,4.83a0.34,0.34,0,0,1-.07.11,0.37,0.37,0,0,1-.26.11,0.36,0.36,0,0,1-.36-0.36,0.49,0.49,0,0,1,0-.15l1.94-5.82a0.36,0.36,0,0,1,.08-0.13,0.35,0.35,0,0,1,.26-0.1,0.36,0.36,0,0,1,.26.11,0.31,0.31,0,0,1,.08.12l1.61,4.82L156,17.47a0.36,0.36,0,0,1,.08-0.13,0.35,0.35,0,0,1,.26-0.1,0.34,0.34,0,0,1,.25.09,0.35,0.35,0,0,1,.09.13l1.94,5.82a0.46,0.46,0,0,1,0,.15,0.36,0.36,0,0,1-.36.36,0.37,0.37,0,0,1-.27-0.11,0.31,0.31,0,0,1-.07-0.11l-1.61-4.83-1.59,4.76a0.44,0.44,0,0,1-.11.18,0.34,0.34,0,0,1-.25.1,0.35,0.35,0,0,1-.25-0.1A0.47,0.47,0,0,1,154,23.52Z" transform="translate(-38.45 -14.42)"/><path class="b" d="M165.41,22.6a3.56,3.56,0,0,1-2.55,1.19,3.28,3.28,0,0,1-2.32-5.6,3.28,3.28,0,0,1,5.6,2.32v2.92a0.36,0.36,0,0,1-.36.36,0.36,0.36,0,0,1-.26-0.11,0.35,0.35,0,0,1-.11-0.26V22.6ZM162.86,18a2.55,2.55,0,1,0,1.8.75A2.46,2.46,0,0,0,162.86,18Z" transform="translate(-38.45 -14.42)"/></g></svg>