<svg xmlns="http://www.w3.org/2000/svg" viewBox="0 0 395.91 500.09"><defs><style>.a{fill:#fff;}.b{fill-rule:evenodd;}</style></defs><title>safari-pinned-tab</title><path d="M447.74,106.14l0.2,24.24c0,136.56-58.63,281.77-177.39,356.69L250,500V486.36l14.38-9.05c115.34-72.81,172-214.5,172-346.93l-0.1-17.3L250,13.12V0Z" transform="translate(-52.04 0.05)"/><path class="a" d="M436.28,113.08l0.1,17.3c0,132.44-56.62,274.13-172,346.93L250,486.36l-14.38-9.05C120.22,404.51,63.6,262.82,63.6,130.38v-0.2l0.1-17.1L250,13.12Z" transform="translate(-52.04 0.05)"/><path d="M250,486.36V500l-20.61-13C110.66,412.15,52,266.94,52,130.38v-0.2l0.2-24L250,0V13.12L63.7,113.08l-0.1,17.1v0.2c0,132.44,56.62,274.13,172.06,346.93Z" transform="translate(-52.04 0.05)"/><path class="b" d="M282.46,61.13L409.4,129.29v1.1a449.42,449.42,0,0,1-11,99.15c-64.14,2-151.92,23-188.21,43.49C220.77,240.45,247.55,112.5,282.46,61.13Z" transform="translate(-52.04 0.05)"/><path class="b" d="M250,454.48c-31.56-19.9-59.81-46.85-83.46-79.19,65.32-26.42,123.13-37,192.83-41C331.75,385.11,294.1,426.67,250,454.48Z" transform="translate(-52.04 0.05)"/><path class="b" d="M123,297.2c-20.68-49.93-32.37-106.66-32.37-166.82v-1.1l74.44-40C156.55,155.92,139.33,233.82,123,297.2Z" transform="translate(-52.04 0.05)"/></svg>